{"title":"Brooklyn's Finest (PSP + Ipod touch + Zune)","uid":5645845,"size":524303969,"categoryP":"video","categoryS":"handheld","magnet":"?xt=urn:btih:02a3384b94130f07aa464f3fcb46501bc2c597f9&amp;dn=Brooklyn%5C%27s+Finest+%28PSP+%2B+Ipod+touch+%2B+Zune%29&amp;tr=udp%3A%2F%2Ftracker.openbittorrent.com%3A80&amp;tr=udp%3A%2F%2Fopen.demonii.com%3A1337&amp;tr=udp%3A%2F%2Ftracker.coppersurfer.tk%3A6969&amp;tr=udp%3A%2F%2Fexodus.desync.com%3A6969","seeders":0,"leechers":1,"uploader":"on.off.on","files":-1,"time":1277291760,"description":"Brooklyn's Finest\n\nsource:\n\nBrooklyns.Finest.720p.Bluray.x264-CBGB &lt;a href=&quot;\nhttp://www.imdb.com/title/tt1210042/&quot; rel=&quot;nofollow&quot; target=&quot;_NEW&quot;&gt;\nhttp://www.imdb.com/title/tt1210042/&lt;/a&gt;\n\n\nID                               : 1\nFormat                           : AVC\nFormat/Info                      : Advanced Video Codec\nFormat profile                   : &lt;a class=&quot;__cf_email__&quot; href=&quot;/cdn-cgi/l/email-protection&quot; data-cfemail=&quot;99dbf8eafcf5f0f7fcd9d5abb7a9&quot;&gt;[email&amp;#160;protected]&lt;/a&gt;&lt;script cf-hash='f9e31' type=&quot;text/javascript&quot;&gt;\n/* &lt;![CDATA[ */!function(){try{var t=&quot;currentScript&quot;in document?document.currentScript:function(){for(var t=document.getElementsByTagName(&quot;script&quot;),e=t.length;e--;)if(t[e].getAttribute(&quot;cf-hash&quot;))return t[e]}();if(t&amp;&amp;t.previousSibling){var e,r,n,i,c=t.previousSibling,a=c.getAttribute(&quot;data-cfemail&quot;);if(a){for(e=&quot;&quot;,r=parseInt(a.substr(0,2),16),n=2;a.length-n;n+=2)i=parseInt(a.substr(n,2),16)^r,e+=String.fromCharCode(i);e=document.createTextNode(e),c.parentNode.replaceChild(e,c)}}}catch(u){}}();/* ]]&gt; */&lt;/script&gt;\nFormat settings, CABAC           : No\nFormat settings, ReFrames        : 3 frames\nCodec ID                         : avc1\nCodec ID/Info                    : Advanced Video Coding\nDuration                         : 2h 12mn\nBit rate mode                    : Variable\nBit rate                         : 395 Kbps\nWidth                            : 480 pixels\nHeight                           : 208 pixels\nDisplay aspect ratio             : 2.35:1\nFrame rate mode                  : Variable\nFrame rate                       : 23.976 fps\nMinimum frame rate               : 23.810 fps\nMaximum frame rate               : 24.390 fps\nColor space                      : YUV\nChroma subsampling               : 4:2:0\nBit depth                        : 8 bits\nScan type                        : Progressive\nBits/(Pixel*Frame)               : 0.165\nStream size                      : 375 MiB (75%)\nWriting library                  : x264 core 79\n\nID                               : 2\nFormat                           : AAC\nFormat/Info                      : Advanced Audio Codec\nFormat version                   : Version 4\nFormat profile                   : LC\nFormat settings, SBR             : No\nCodec ID                         : 40\nDuration                         : 2h 12mn\nBit rate mode                    : Variable\nBit rate                         : 128 Kbps\nMaximum bit rate                 : 254 Kbps\nChannel(s)                       : 2 channels\nChannel positions                : Front: L R\nSampling rate                    : 48.0 KHz\nStream size                      : 121 MiB (24%)\nLanguage                         : English &lt;a href=&quot;\nhttp://img3.imageshack.us/img3/6051/vlcsnap00001yc.png&quot; rel=&quot;nofollow&quot; target=&quot;_NEW&quot;&gt;\nhttp://img3.imageshack.us/img3/6051/vlcsnap00001yc.png&lt;/a&gt; &lt;a href=&quot;\nhttp://img709.imageshack.us/img709/7130/vlcsnap00002u.png&quot; rel=&quot;nofollow&quot; target=&quot;_NEW&quot;&gt;\nhttp://img709.imageshack.us/img709/7130/vlcsnap00002u.png&lt;/a&gt; &lt;a href=&quot;\nhttp://img532.imageshack.us/img532/7278/vlcsnap00003n.png&quot; rel=&quot;nofollow&quot; target=&quot;_NEW&quot;&gt;\nhttp://img532.imageshack.us/img532/7278/vlcsnap00003n.png&lt;/a&gt; &lt;a href=&quot;\nhttp://img149.imageshack.us/img149/6532/vlcsnap00004w.png&quot; rel=&quot;nofollow&quot; target=&quot;_NEW&quot;&gt;\nhttp://img149.imageshack.us/img149/6532/vlcsnap00004w.png&lt;/a&gt; &lt;a href=&quot;\nhttp://img638.imageshack.us/img638/4237/vlcsnap00005g.png&quot; rel=&quot;nofollow&quot; target=&quot;_NEW&quot;&gt;\nhttp://img638.imageshack.us/img638/4237/vlcsnap00005g.png&lt;/a&gt; &lt;a href=&quot;\nhttp://img337.imageshack.us/img337/1021/vlcsnap00006m.png&quot; rel=&quot;nofollow&quot; target=&quot;_NEW&quot;&gt;\nhttp://img337.imageshack.us/img337/1021/vlcsnap00006m.png&lt;/a&gt; &lt;a href=&quot;\nhttp://img4.imageshack.us/img4/3474/vlcsnap00007gs.png&quot; rel=&quot;nofollow&quot; target=&quot;_NEW&quot;&gt;\nhttp://img4.imageshack.us/img4/3474/vlcsnap00007gs.png&lt;/a&gt; &lt;a href=&quot;\nhttp://img408.imageshack.us/img408/566/vlcsnap00008k.png&quot; rel=&quot;nofollow&quot; target=&quot;_NEW&quot;&gt;\nhttp://img408.imageshack.us/img408/566/vlcsnap00008k.png&lt;/a&gt;\n\n\n\n\nPLEASE LET THE TORRENT SEED AND SHARE IT WITH ALL YOU KNOW!\n\nLet me know what I can do to be your trusted source of Handheld videos.\n\n\n\n\n\n-OOO","torrent":{"xt":"urn:btih:02a3384b94130f07aa464f3fcb46501bc2c597f9","amp;dn":"Brooklyn%5C%27s+Finest+%28PSP+%2B+Ipod+touch+%2B+Zune%29","amp;tr":["udp%3A%2F%2Ftracker.openbittorrent.com%3A80","udp%3A%2F%2Fopen.demonii.com%3A1337","udp%3A%2F%2Ftracker.coppersurfer.tk%3A6969","udp%3A%2F%2Fexodus.desync.com%3A6969"],"infoHash":"02a3384b94130f07aa464f3fcb46501bc2c597f9","infoHashBuffer":{"type":"Buffer","data":[2,163,56,75,148,19,15,7,170,70,79,63,203,70,80,27,194,197,151,249]},"announce":[],"urlList":[]}}